<?xml version="1.0" encoding="UTF-8"?>
<svg xmlns="http://www.w3.org/2000/svg" xmlns:xlink="http://www.w3.org/1999/xlink" viewBox="0 0 394.86 634.58">
  <defs>
    <style>
      .cls-1, .cls-2 {
        fill: #7076fe;
      }

      .cls-3 {
        fill: url(#linear-gradient);
      }

      .cls-3, .cls-4 {
        mix-blend-mode: multiply;
        opacity: .5;
      }

      .cls-4 {
        fill: url(#linear-gradient-2);
      }

      .cls-2 {
        mix-blend-mode: screen;
      }

      .cls-5 {
        isolation: isolate;
      }
    </style>
    <linearGradient id="linear-gradient" x1="177.67" y1="466.13" x2="98.32" y2="197.84" gradientUnits="userSpaceOnUse">
      <stop offset="0" stop-color="#fff"/>
      <stop offset="1" stop-color="#000"/>
    </linearGradient>
    <linearGradient id="linear-gradient-2" x1="238.73" y1="310.41" x2="316.38" y2="185.71" xlink:href="#linear-gradient"/>
  </defs>
  <g class="cls-5">
    <g id="Layer_2" data-name="Layer 2">
      <g id="Layer_1-2" data-name="Layer 1">
        <g>
          <path class="cls-1" d="m382.41,331.97c0,152.99-191.21,302.61-191.21,302.61,0,0-85.47-66.88-136.11-148.5,58.57,24.56,149.81,22.57,200.16-35.24,32.62-37.46,43.96-74.68,41.44-107.13,17.4-38.36,29.49-85.81,34.76-141.68,31.63,34.09,50.96,79.75,50.96,129.94Z"/>
          <path class="cls-1" d="m314.97,186.24c-11.89,35.93-25.6,69.64-41.35,97.87-21.5-27.67-54.91-44.28-88.06-42.44-65.19,0-128.18,56.46-110.03,126.69,18.71,72.48,122.94,81.03,154.31,63.14-24.83,18.42-52.95,28.32-83.03,29.14C71.98,462.76,9.23,424.57.41,344.18c-.41-3.74-.41-10.84-.41-12.21,0-105.58,85.6-191.18,191.21-191.18,47.21,0,90.41,17.1,123.76,45.45Z"/>
          <path class="cls-1" d="m331.46,202.03c-5.27,55.88-17.37,103.32-34.76,141.68-17.45,38.66-40.27,68.12-66.86,87.8-31.37,17.89-135.59,9.34-154.31-63.14-18.16-70.23,44.84-126.69,110.03-126.69-94.27,5.27-88.82,136.59-.59,122.44,35-5.62,64.28-36.26,88.65-80.01,15.76-28.23,29.46-61.94,41.35-97.87,7.03-21.32,13.44-43.46,19.27-65.69.59,28.88-.41,56.05-2.78,81.47Z"/>
          <path class="cls-3" d="m222.88,434.62c-37.52,13.41-129.85,1.55-147.37-66.24-18.07-69.88,44.22-126.13,109.06-126.69-.09.03-.15.06-.23.09-32.1,2.17-52.42,19.09-61.65,39.74-20.73,21.2-33.47,46.74-30.11,70.11,9.55,65.69,84.08,84.78,130.29,83Z"/>
          <polygon class="cls-1" points="336.03 67.69 351.15 141.85 394.86 144.38 339.94 0 268.74 137.08 312.46 139.61 336.03 67.69"/>
          <path class="cls-4" d="m250.52,261.76s0,0,0,0c8.61,6.24,16.43,13.76,23.1,22.35,15.76-28.23,29.46-61.94,41.35-97.87,0,0-32.75,70.48-64.45,75.52Z"/>
          <path class="cls-2" d="m74.68,364.59c.28,1.26.52,2.51.85,3.78,18.71,72.48,122.94,81.03,154.31,63.14,26.59-19.68,49.41-49.14,66.86-87.8,17.4-38.36,29.49-85.81,34.76-141.69,2.37-25.42,3.37-52.6,2.78-81.47,0,0-8.58,143.71-73.76,225.89-59.96,75.61-152.01,59.58-185.8,18.14Z"/>
          <path class="cls-1" d="m191.21,634.58s101.19-79.2,156.34-181.27c-59.7,109.32-225.19,97.01-292.45,32.77,50.64,81.62,136.11,148.5,136.11,148.5Z"/>
        </g>
      </g>
    </g>
  </g>
</svg>